<mxfile host="app.diagrams.net" modified="2022-09-29T05:54:33.058Z" agent="5.0 (Macintosh; Intel Mac OS X 10_15_7) AppleWebKit/537.36 (KHTML, like Gecko) Chrome/105.0.0.0 Safari/537.36" etag="bMZDeaHBIOGVUWkksuf4" version="20.3.6" type="github">
  <diagram id="pyfyL9bXM5tNJYCM1sgz" name="Page-1">
    <mxGraphModel dx="1426" dy="801" grid="1" gridSize="10" guides="1" tooltips="1" connect="1" arrows="1" fold="1" page="1" pageScale="1" pageWidth="850" pageHeight="1100" math="0" shadow="0">
      <root>
        <mxCell id="0" />
        <mxCell id="1" parent="0" />
        <mxCell id="_wUV71Dr-p7z-2CHDMfT-1" value="meter" style="rounded=0;whiteSpace=wrap;html=1;" parent="1" vertex="1">
          <mxGeometry x="100" y="430" width="240" height="120" as="geometry" />
        </mxCell>
        <mxCell id="_wUV71Dr-p7z-2CHDMfT-2" value="meter" style="rounded=0;whiteSpace=wrap;html=1;" parent="1" vertex="1">
          <mxGeometry x="110" y="440" width="240" height="120" as="geometry" />
        </mxCell>
        <mxCell id="_wUV71Dr-p7z-2CHDMfT-3" value="meters&lt;br&gt;map[instrumentation.Scope]*meter" style="text;html=1;strokeColor=none;fillColor=none;align=center;verticalAlign=middle;whiteSpace=wrap;rounded=0;" parent="1" vertex="1">
          <mxGeometry x="190" y="390" width="60" height="30" as="geometry" />
        </mxCell>
        <mxCell id="_wUV71Dr-p7z-2CHDMfT-4" value="view" style="rounded=0;whiteSpace=wrap;html=1;" parent="1" vertex="1">
          <mxGeometry x="480" y="190" width="160" height="80" as="geometry" />
        </mxCell>
        <mxCell id="uBEo45ecoD05pKfNoMdv-8" style="edgeStyle=orthogonalEdgeStyle;rounded=0;orthogonalLoop=1;jettySize=auto;html=1;exitX=0.5;exitY=1;exitDx=0;exitDy=0;" parent="1" source="_wUV71Dr-p7z-2CHDMfT-5" target="uBEo45ecoD05pKfNoMdv-6" edge="1">
          <mxGeometry relative="1" as="geometry" />
        </mxCell>
        <mxCell id="_wUV71Dr-p7z-2CHDMfT-5" value="view" style="rounded=0;whiteSpace=wrap;html=1;" parent="1" vertex="1">
          <mxGeometry x="490" y="200" width="160" height="80" as="geometry" />
        </mxCell>
        <mxCell id="uBEo45ecoD05pKfNoMdv-2" value="produce" style="edgeStyle=orthogonalEdgeStyle;rounded=0;orthogonalLoop=1;jettySize=auto;html=1;exitX=1;exitY=0.5;exitDx=0;exitDy=0;entryX=0;entryY=0.5;entryDx=0;entryDy=0;" parent="1" source="_wUV71Dr-p7z-2CHDMfT-7" target="uBEo45ecoD05pKfNoMdv-1" edge="1">
          <mxGeometry relative="1" as="geometry" />
        </mxCell>
        <mxCell id="_wUV71Dr-p7z-2CHDMfT-7" value="pipeline" style="rounded=0;whiteSpace=wrap;html=1;" parent="1" vertex="1">
          <mxGeometry x="490" y="450" width="160" height="110" as="geometry" />
        </mxCell>
        <mxCell id="uBEo45ecoD05pKfNoMdv-3" style="edgeStyle=orthogonalEdgeStyle;rounded=0;orthogonalLoop=1;jettySize=auto;html=1;exitX=1;exitY=0.5;exitDx=0;exitDy=0;entryX=-0.05;entryY=0.5;entryDx=0;entryDy=0;entryPerimeter=0;" parent="1" source="uBEo45ecoD05pKfNoMdv-1" edge="1" target="uBEo45ecoD05pKfNoMdv-4">
          <mxGeometry relative="1" as="geometry">
            <mxPoint x="939.9999999999998" y="490.28571428571433" as="targetPoint" />
          </mxGeometry>
        </mxCell>
        <mxCell id="uBEo45ecoD05pKfNoMdv-1" value="reader" style="rounded=0;whiteSpace=wrap;html=1;" parent="1" vertex="1">
          <mxGeometry x="780" y="475" width="120" height="60" as="geometry" />
        </mxCell>
        <mxCell id="uBEo45ecoD05pKfNoMdv-4" value="Collect" style="text;html=1;align=center;verticalAlign=middle;resizable=0;points=[];autosize=1;strokeColor=none;fillColor=none;" parent="1" vertex="1">
          <mxGeometry x="960" y="490" width="60" height="30" as="geometry" />
        </mxCell>
        <mxCell id="uBEo45ecoD05pKfNoMdv-5" value="view" style="rounded=0;whiteSpace=wrap;html=1;" parent="1" vertex="1">
          <mxGeometry x="480" y="340" width="160" height="80" as="geometry" />
        </mxCell>
        <mxCell id="uBEo45ecoD05pKfNoMdv-7" style="edgeStyle=orthogonalEdgeStyle;rounded=0;orthogonalLoop=1;jettySize=auto;html=1;exitX=0.5;exitY=1;exitDx=0;exitDy=0;entryX=0.5;entryY=0;entryDx=0;entryDy=0;" parent="1" source="uBEo45ecoD05pKfNoMdv-6" target="_wUV71Dr-p7z-2CHDMfT-7" edge="1">
          <mxGeometry relative="1" as="geometry" />
        </mxCell>
        <mxCell id="uBEo45ecoD05pKfNoMdv-6" value="internal.Aggregator" style="rounded=0;whiteSpace=wrap;html=1;" parent="1" vertex="1">
          <mxGeometry x="490" y="350" width="160" height="80" as="geometry" />
        </mxCell>
      </root>
    </mxGraphModel>
  </diagram>
</mxfile>
